<svg width="26" height="24" viewBox="0 0 26 24" fill="none" xmlns="http://www.w3.org/2000/svg">
<path d="M12.2062 0.745359C12.5773 0.0181081 13.6165 0.0181087 13.9876 0.74536L17.0625 6.7705C17.2078 7.05522 17.4804 7.25332 17.7961 7.30352L24.4765 8.36599C25.2829 8.49423 25.604 9.48252 25.027 10.0602L20.247 14.8464C20.0211 15.0726 19.9169 15.3931 19.9667 15.7089L21.0206 22.3907C21.1478 23.1972 20.3071 23.808 19.5794 23.4378L13.5503 20.3707C13.2654 20.2257 12.9284 20.2257 12.6435 20.3707L6.61443 23.4378C5.8867 23.808 5.04601 23.1972 5.17322 22.3907L6.22712 15.7089C6.27692 15.3931 6.17278 15.0726 5.94689 14.8464L1.16682 10.0602C0.589854 9.48252 0.910969 8.49423 1.71731 8.36599L8.39773 7.30352C8.71342 7.25332 8.98608 7.05522 9.13138 6.7705L12.2062 0.745359Z" fill="url(#paint0_linear_1197_2081)"/>
<defs>
<linearGradient id="paint0_linear_1197_2081" x1="13.0969" y1="-1" x2="13.0969" y2="27" gradientUnits="userSpaceOnUse">
<stop stop-color="#FBFF3A"/>
<stop offset="1" stop-color="#FFCD6B"/>
</linearGradient>
</defs>
</svg>
