<svg width="13" height="17" viewBox="0 0 13 17" fill="none" xmlns="http://www.w3.org/2000/svg">
<path d="M6.65779 6.24697C6.76779 5.91697 7.23379 5.91697 7.34379 6.24697L7.98879 8.18397C8.13076 8.60977 8.36996 8.99665 8.68743 9.31394C9.0049 9.63124 9.39191 9.87023 9.81779 10.012L11.7538 10.657C12.0838 10.767 12.0838 11.233 11.7538 11.343L9.81679 11.988C9.39099 12.1299 9.0041 12.3691 8.68681 12.6866C8.36951 13.0041 8.13053 13.3911 7.98879 13.817L7.34379 15.753C7.32007 15.8252 7.27414 15.8882 7.21255 15.9328C7.15095 15.9774 7.07684 16.0014 7.00079 16.0014C6.92473 16.0014 6.85062 15.9774 6.78903 15.9328C6.72743 15.8882 6.6815 15.8252 6.65779 15.753L6.01279 13.816C5.87092 13.3903 5.63187 13.0035 5.31458 12.6862C4.99729 12.3689 4.61048 12.1298 4.18479 11.988L2.24779 11.343C2.17553 11.3193 2.1126 11.2733 2.06799 11.2117C2.02338 11.1501 1.99936 11.076 1.99936 11C1.99936 10.9239 2.02338 10.8498 2.06799 10.7882C2.1126 10.7266 2.17553 10.6807 2.24779 10.657L4.18479 10.012C4.61048 9.8701 4.99729 9.63105 5.31458 9.31376C5.63187 8.99647 5.87092 8.60966 6.01279 8.18397L6.65779 6.24697ZM2.79479 1.14797C2.80913 1.10466 2.83675 1.06698 2.87373 1.04027C2.91071 1.01356 2.95517 0.99918 3.00079 0.99918C3.04641 0.99918 3.09086 1.01356 3.12784 1.04027C3.16482 1.06698 3.19245 1.10466 3.20679 1.14797L3.59379 2.30997C3.76679 2.82797 4.17279 3.23397 4.69079 3.40697L5.85279 3.79397C5.89609 3.80831 5.93378 3.83593 5.96049 3.87291C5.9872 3.90989 6.00157 3.95435 6.00157 3.99997C6.00157 4.04559 5.9872 4.09004 5.96049 4.12702C5.93378 4.164 5.89609 4.19163 5.85279 4.20597L4.69079 4.59297C4.43531 4.67808 4.20317 4.82153 4.01276 5.01194C3.82235 5.20235 3.6789 5.43449 3.59379 5.68997L3.20679 6.85197C3.19245 6.89527 3.16482 6.93296 3.12784 6.95967C3.09086 6.98638 3.04641 7.00075 3.00079 7.00075C2.95517 7.00075 2.91071 6.98638 2.87373 6.95967C2.83675 6.93296 2.80913 6.89527 2.79479 6.85197L2.40779 5.68997C2.32267 5.43449 2.17922 5.20235 1.98881 5.01194C1.7984 4.82153 1.56626 4.67808 1.31079 4.59297L0.148787 4.20597C0.105481 4.19163 0.0677964 4.164 0.0410864 4.12702C0.0143764 4.09004 0 4.04559 0 3.99997C0 3.95435 0.0143764 3.90989 0.0410864 3.87291C0.0677964 3.83593 0.105481 3.80831 0.148787 3.79397L1.31079 3.40697C1.56626 3.32185 1.7984 3.1784 1.98881 2.98799C2.17922 2.79758 2.32267 2.56544 2.40779 2.30997L2.79479 1.14797ZM9.86379 0.0989675C9.87366 0.0704938 9.89216 0.0458034 9.91671 0.0283291C9.94126 0.0108548 9.97065 0.00146484 10.0008 0.00146484C10.0309 0.00146484 10.0603 0.0108548 10.0849 0.0283291C10.1094 0.0458034 10.1279 0.0704938 10.1378 0.0989675L10.3958 0.872967C10.5108 1.21897 10.7818 1.48997 11.1278 1.60497L11.9018 1.86297C11.9303 1.87284 11.955 1.89134 11.9724 1.91589C11.9899 1.94044 11.9993 1.96983 11.9993 1.99997C11.9993 2.0301 11.9899 2.05949 11.9724 2.08404C11.955 2.1086 11.9303 2.1271 11.9018 2.13697L11.1278 2.39497C10.9573 2.45169 10.8023 2.54738 10.6753 2.67445C10.5482 2.80152 10.4525 2.95646 10.3958 3.12697L10.1378 3.90097C10.1279 3.92944 10.1094 3.95413 10.0849 3.97161C10.0603 3.98908 10.0309 3.99847 10.0008 3.99847C9.97065 3.99847 9.94126 3.98908 9.91671 3.97161C9.89216 3.95413 9.87366 3.92944 9.86379 3.90097L9.60579 3.12697C9.54906 2.95646 9.45337 2.80152 9.3263 2.67445C9.19924 2.54738 9.0443 2.45169 8.87379 2.39497L8.10079 2.13697C8.07231 2.1271 8.04762 2.1086 8.03015 2.08404C8.01267 2.05949 8.00328 2.0301 8.00328 1.99997C8.00328 1.96983 8.01267 1.94044 8.03015 1.91589C8.04762 1.89134 8.07231 1.87284 8.10079 1.86297L8.87479 1.60497C9.22079 1.48997 9.49179 1.21897 9.60679 0.872967L9.86379 0.0999675V0.0989675Z" fill="url(#paint0_linear_199_1725)"/>
<defs>
<linearGradient id="paint0_linear_199_1725" x1="-2.3671" y1="8.02026" x2="12.5129" y2="8.33844" gradientUnits="userSpaceOnUse">
<stop offset="0.0260417" stop-color="#FFF6E8"/>
<stop offset="0.317708" stop-color="#F5DFBB"/>
<stop offset="0.697917" stop-color="#FAB77F"/>
<stop offset="1" stop-color="#FFF6E8"/>
</linearGradient>
</defs>
</svg>
